# xmcd CD database file
#
# Track frame offsets:
#	150
#	11400
#	25600
#	52728
#	78090
#	102803
#	130933
#	154118
#	177850
#	195160
#	198423
#	222130
#	243720
#
# Disc length: 3457 seconds
#
# Revision: 38
# Processed by: cddbd v1.5.2PL0 Copyright (c) Steve Scherf et al.
# Submitted via: CDex 1.70beta2
#
DISCID=950d7f0d
DTITLE=Alice in Chains - Dirt
DYEAR=1992
DGENRE=Metal
TTITLE0=Them Bones
TTITLE1=Dam That River
TTITLE2=Rain When I Die
TTITLE3=Down in a Hole
TTITLE4=Sickman
TTITLE5=Rooster
TTITLE6=Junkhead
TTITLE7=Dirt
TTITLE8=God Smack
TTITLE9=Iron Gland
TTITLE10=Hate to Feel
TTITLE11=Angry Chair
TTITLE12=Would?
EXTD=YEAR: 1992
EXTT0=
EXTT1=
EXTT2=
EXTT3=
EXTT4=
EXTT5=
EXTT6=
EXTT7=
EXTT8=
EXTT9=
EXTT10=
EXTT11=
EXTT12=
PLAYORDER=
